<svg version="1.1" viewBox="0.0 0.0 960.0 960.0" fill="none" stroke="none" stroke-linecap="square" stroke-miterlimit="10" xmlns:xlink="http://www.w3.org/1999/xlink" xmlns="http://www.w3.org/2000/svg"><clipPath id="p.0"><path d="m0 0l960.0 0l0 960.0l-960.0 0l0 -960.0z" clip-rule="nonzero"/></clipPath><g clip-path="url(#p.0)"><path fill="#000000" fill-opacity="0.0" d="m0 0l960.0 0l0 960.0l-960.0 0z" fill-rule="evenodd"/><path fill="#000000" fill-opacity="0.0" d="m103.84252 480.0l0 0c0 -207.74603 168.41144 -376.15747 376.15747 -376.15747l0 0c99.76318 0 195.4403 39.63076 265.98352 110.17397c70.54321 70.5432 110.17395 166.22035 110.17395 265.98352l0 0c0 207.74603 -168.41144 376.15747 -376.15747 376.15747l0 0c-207.74603 0 -376.15747 -168.41144 -376.15747 -376.15747z" fill-rule="evenodd"/><path stroke="#cccccc" stroke-width="24.0" stroke-linejoin="round" stroke-linecap="butt" d="m103.84252 480.0l0 0c0 -207.74603 168.41144 -376.15747 376.15747 -376.15747l0 0c99.76318 0 195.4403 39.63076 265.98352 110.17397c70.54321 70.5432 110.17395 166.22035 110.17395 265.98352l0 0c0 207.74603 -168.41144 376.15747 -376.15747 376.15747l0 0c-207.74603 0 -376.15747 -168.41144 -376.15747 -376.15747z" fill-rule="evenodd"/><path fill="#000000" fill-opacity="0.0" d="m0.007874016 147.10236l960.0 0l0 665.7953l-960.0 0z" fill-rule="evenodd"/><path fill="#999999" d="m512.69696 569.66486l-66.40625 0q-0.265625 -14.328125 -0.265625 -17.453125q0 -32.28125 10.671875 -53.109375q10.6875 -20.84375 42.71875 -46.875q32.03125 -26.046875 38.28125 -34.125q9.625 -12.765625 9.625 -28.125q0 -21.34375 -17.0625 -36.578125q-17.046875 -15.234375 -45.953125 -15.234375q-27.859375 0 -46.609375 15.890625q-18.75 15.875 -25.78125 48.421875l-67.1875 -8.328125q2.859375 -46.609375 39.703125 -79.15625q36.859375 -32.5625 96.75 -32.5625q63.015625 0 100.25 32.953125q37.25 32.9375 37.25 76.6875q0 24.203125 -13.671875 45.828125q-13.671875 21.609375 -58.46875 58.84375q-23.171875 19.28125 -28.78125 31.0q-5.59375 11.71875 -5.0625 41.921875zm-66.40625 98.4375l0 -73.171875l73.171875 0l0 73.171875l-73.171875 0z" fill-rule="nonzero"/></g></svg>