<svg version="1.1" viewBox="0.0 0.0 720.0 720.0" fill="none" stroke="none" stroke-linecap="square" stroke-miterlimit="10" xmlns:xlink="http://www.w3.org/1999/xlink" xmlns="http://www.w3.org/2000/svg"><clipPath id="p.0"><path d="m0 0l720.0 0l0 720.0l-720.0 0l0 -720.0z" clip-rule="nonzero"/></clipPath><g clip-path="url(#p.0)"><path fill="#000000" fill-opacity="0.0" d="m0 0l720.0 0l0 720.0l-720.0 0z" fill-rule="evenodd"/><path fill="#ff0000" d="m0.91371757 159.81097l0 0c0 -87.74793 71.13375 -158.88168 158.88168 -158.88168l400.40985 0l0 0c42.13806 0 82.55023 16.739271 112.34631 46.535362c29.796082 29.796093 46.5354 70.20827 46.5354 112.34631l0 400.37836c0 87.747925 -71.13379 158.88171 -158.88171 158.88171l-400.40985 0c-87.747925 0 -158.88168 -71.13379 -158.88168 -158.88171z" fill-rule="evenodd"/><path fill="#ffffff" d="m235.4697 359.99982l0 0c0 -119.32831 79.50296 -216.063 177.5748 -216.063l0 0c47.095764 0 92.262634 22.763718 125.56433 63.283386c33.301758 40.51967 52.010498 95.47615 52.010498 152.77962l0 0c0 119.32828 -79.50296 216.06299 -177.57483 216.06299l0 0c-98.07184 0 -177.5748 -96.73471 -177.5748 -216.06299z" fill-rule="evenodd"/><path fill="#ffffff" d="m192.05984 143.92545l234.80313 0l0 204.72443l-234.80313 0z" fill-rule="evenodd"/><path fill="#ffffff" d="m192.0585 371.35037l234.80313 0l0 204.7244l-234.80313 0z" fill-rule="evenodd"/><path fill="#ff0000" d="m105.23609 348.6397l597.92126 0l0 22.740173l-597.92126 0z" fill-rule="evenodd"/></g></svg>