<svg version="1.1" viewBox="0.0 0.0 1024.0 1024.0" fill="none" stroke="none" stroke-linecap="square" stroke-miterlimit="10" xmlns:xlink="http://www.w3.org/1999/xlink" xmlns="http://www.w3.org/2000/svg"><clipPath id="p.0"><path d="m0 0l1024.0 0l0 1024.0l-1024.0 0l0 -1024.0z" clip-rule="nonzero"/></clipPath><g clip-path="url(#p.0)"><path fill="#000000" fill-opacity="0.0" d="m0 0l1024.0 0l0 1024.0l-1024.0 0z" fill-rule="evenodd"/><path fill="#ec2727" d="m5.511811E-6 511.9999l0 0c0 -282.7524 229.21611 -511.9685 511.9685 -511.9685l0.06298828 0l0 0c135.78247 0 266.00366 53.939384 362.01642 149.9521c96.012695 96.01271 149.95209 226.2339 149.95209 362.01642l0 0l0 0c0 282.7524 -229.21613 511.96848 -511.9685 511.96848l-0.06298828 0l0 0c-282.75238 0 -511.9685 -229.21606 -511.9685 -511.96848z" fill-rule="evenodd"/><path fill="#ec2727" d="m191.1387 467.0949l745.54333 0l0 89.79529l-745.54333 0z" fill-rule="evenodd"/><path fill="#ffffff" d="m60.94488 511.6273l0 0c0 -97.40216 78.96005 -176.36218 176.3622 -176.36218l0 0c46.774155 0 91.63258 18.580963 124.706924 51.655273c33.07431 33.07434 51.655273 77.93274 51.655273 124.70691l0 0c0 97.40219 -78.96005 176.36221 -176.3622 176.36221l0 0c-97.402145 0 -176.3622 -78.96002 -176.3622 -176.36221z" fill-rule="evenodd"/><path fill="#ec2727" d="m146.70866 512.0l0 0c0 -50.036133 40.5623 -90.59842 90.59842 -90.59842l0 0c24.028214 0 47.07225 9.545166 64.06276 26.535645c16.990509 16.990509 26.535675 40.034576 26.535675 64.062775l0 0c0 50.036133 -40.562317 90.59845 -90.598434 90.59845l0 0c-50.036118 0 -90.59842 -40.562317 -90.59842 -90.59845z" fill-rule="evenodd"/><path fill="#ffffff" d="m964.30853 508.14716l0 6.960266l0 0c0 16.309814 -6.479065 31.95166 -18.01184 43.484436c-11.532776 11.532776 -27.174622 18.01184 -43.484436 18.01184l-293.93683 0c-6.1035156E-4 0 -0.0010986328 -4.8828125E-4 -0.0010986328 -0.0010986328l0.0010986328 -129.95169l0 0c0 -5.79834E-4 4.8828125E-4 -0.0010681152 0.0010986328 -0.0010681152l293.93573 0.0010681152l0 0c33.96344 0 61.496277 27.532806 61.496277 61.496246z" fill-rule="evenodd"/><path fill="#ffffff" d="m381.03412 446.83914l243.27557 0l0 129.95279l-243.27557 0z" fill-rule="evenodd"/><path fill="#ffffff" d="m708.41895 686.67194l-15.73999 0l0 0c-11.490967 0 -22.511353 -4.5648193 -30.636719 -12.690186c-8.125366 -8.125366 -12.6901245 -19.14569 -12.6901245 -30.636719l0 -86.81482c0 -4.8828125E-4 3.6621094E-4 -8.544922E-4 8.544922E-4 -8.544922E-4l102.39282 8.544922E-4l0 0c4.8828125E-4 0 8.544922E-4 3.6621094E-4 8.544922E-4 8.544922E-4l-8.544922E-4 86.813965l0 0c0 23.928772 -19.398071 43.326904 -43.326843 43.326904z" fill-rule="evenodd"/><path fill="#ffffff" d="m849.29517 686.67194l-15.739929 0l0 0c-11.491028 0 -22.511353 -4.5648193 -30.636719 -12.690186c-8.125366 -8.125366 -12.690186 -19.14569 -12.690186 -30.636719l0 -86.81482c0 -4.8828125E-4 3.6621094E-4 -8.544922E-4 8.544922E-4 -8.544922E-4l102.39288 8.544922E-4l0 0c4.272461E-4 0 8.544922E-4 3.6621094E-4 8.544922E-4 8.544922E-4l-8.544922E-4 86.813965l0 0c0 23.928772 -19.398132 43.326904 -43.326904 43.326904z" fill-rule="evenodd"/></g></svg>