<svg version="1.1" viewBox="0.0 0.0 1024.0 1024.0" fill="none" stroke="none" stroke-linecap="square" stroke-miterlimit="10" xmlns:xlink="http://www.w3.org/1999/xlink" xmlns="http://www.w3.org/2000/svg"><clipPath id="p.0"><path d="m0 0l1024.0 0l0 1024.0l-1024.0 0l0 -1024.0z" clip-rule="nonzero"/></clipPath><g clip-path="url(#p.0)"><path fill="#000000" fill-opacity="0.0" d="m0 0l1024.0 0l0 1024.0l-1024.0 0z" fill-rule="evenodd"/><path fill="#ff0000" d="m5.511811E-6 226.56721l0 0c0 -125.112274 101.42354 -226.53581 226.53583 -226.53581l570.92834 0l0 0c60.081055 0 117.701294 23.8671 160.185 66.35081c42.483765 42.48371 66.35083 100.10399 66.35083 160.18501l0 570.86536c0 125.112305 -101.42352 226.53583 -226.53583 226.53583l-570.92834 0c-125.11228 0 -226.53583 -101.42352 -226.53583 -226.53583z" fill-rule="evenodd"/><path fill="#cc0000" d="m257.8653 565.8161l0 0c0 -169.0252 137.02203 -306.04724 306.04724 -306.04724l0 0l0 0c81.16876 0 159.01312 32.24417 216.40808 89.63916c57.39502 57.39499 89.63916 135.23932 89.63916 216.40808l0 13.354309l0 0c0 169.02527 -137.02203 306.0473 -306.04724 306.0473l0 0l0 0c-169.0252 0 -306.04724 -137.02203 -306.04724 -306.0473z" fill-rule="evenodd"/><path fill="#cc0000" d="m257.71652 884.7508l302.17325 0l0 -624.9764l-302.17325 0z" fill-rule="evenodd"/><path fill="#ffffff" d="m257.8653 506.06546l0 0c0 -169.02524 137.02203 -306.04724 306.04724 -306.04724l0 0l0 0c81.16876 0 159.01312 32.24417 216.40808 89.639175c57.39502 57.39499 89.63916 135.23929 89.63916 216.40808l0 13.35434l0 0c0 169.0252 -137.02203 306.04724 -306.04724 306.04724l0 0l0 0c-169.0252 0 -306.04724 -137.02203 -306.04724 -306.04724z" fill-rule="evenodd"/><path fill="#ffffff" d="m257.71652 825.0001l302.17325 0l0 -624.9764l-302.17325 0z" fill-rule="evenodd"/><path fill="#cc0000" d="m257.7126 482.86877l612.25195 0l0 59.748047l-612.25195 0z" fill-rule="evenodd"/></g></svg>