<svg version="1.1" viewBox="0.0 0.0 720.0 720.0" fill="none" stroke="none" stroke-linecap="square" stroke-miterlimit="10" xmlns:xlink="http://www.w3.org/1999/xlink" xmlns="http://www.w3.org/2000/svg"><clipPath id="p.0"><path d="m0 0l720.0 0l0 720.0l-720.0 0l0 -720.0z" clip-rule="nonzero"/></clipPath><g clip-path="url(#p.0)"><path fill="#000000" fill-opacity="0.0" d="m0 0l720.0 0l0 720.0l-720.0 0z" fill-rule="evenodd"/><path fill="#666666" d="m360.25168 44.240467l0 632.02246c-84.26965 0 -158.00562 -31.601135 -221.20787 -94.803406c-63.20224 -63.20221 -94.80336 -136.93817 -94.80336 -221.20786c0 -84.26965 31.60112 -158.0056 94.80336 -221.20784c63.202255 -63.202248 136.93822 -94.803375 221.20787 -94.803375zm0 -44.241573c-96.910126 0 -181.17978 35.814606 -252.80899 107.44382c-71.62921 71.62922 -107.44381 155.89886 -107.44381 252.80896c0 96.910126 35.814606 181.17978 107.44381 252.80899c71.62921 71.62921 155.89886 107.44385 252.80899 107.44385c96.910095 0 181.17978 -35.814636 252.80899 -107.44385c71.62921 -71.62921 107.44379 -155.89886 107.44379 -252.80899c0 -96.910095 -35.814575 -181.17975 -107.44379 -252.80896c-71.62921 -71.62921 -155.8989 -107.44382 -252.80899 -107.44382z" fill-rule="evenodd"/></g></svg>