<svg version="1.1" viewBox="0.0 0.0 480.0 480.0" fill="none" stroke="none" stroke-linecap="square" stroke-miterlimit="10" xmlns:xlink="http://www.w3.org/1999/xlink" xmlns="http://www.w3.org/2000/svg"><clipPath id="p.0"><path d="m0 0l480.0 0l0 480.0l-480.0 0l0 -480.0z" clip-rule="nonzero"/></clipPath><g clip-path="url(#p.0)"><path fill="#000000" fill-opacity="0.0" d="m0 0l480.0 0l0 480.0l-480.0 0z" fill-rule="evenodd"/><path fill="#ffffff" d="m148.76025 223.92862l101.48657 105.02179l-38.09375 39.505524l-101.48658 -105.02179z" fill-rule="evenodd"/><path fill="#ffffff" d="m110.72081 223.87276l0 0c10.519302 -10.909149 27.574463 -10.909149 38.093765 0l0 0c5.051544 5.2387543 7.8894653 12.344025 7.8894653 19.752747c0 7.408722 -2.8379211 14.513992 -7.8894653 19.752762l0 0c-10.519302 10.909149 -27.574463 10.909149 -38.093765 0l0 0c-10.519302 -10.909149 -10.519302 -28.596375 0 -39.50551z" fill-rule="evenodd"/><path fill="#ffffff" d="m212.0985 329.00748l0 0c10.519302 -10.909149 27.574448 -10.909149 38.09375 0l0 0c5.0515594 5.238739 7.8894806 12.344025 7.8894806 19.752747c0 7.408722 -2.8379211 14.514008 -7.8894806 19.752747l0 0c-10.519302 10.909149 -27.574448 10.909149 -38.09375 0l0 0c-10.519302 -10.909149 -10.519302 -28.596344 0 -39.505493z" fill-rule="evenodd"/><path fill="#ffffff" d="m209.20209 336.67737l133.88977 -248.31497l46.992126 27.30709l-133.88977 248.31497z" fill-rule="evenodd"/><path fill="#ffffff" d="m219.4565 374.66245l0 0c-12.975433 -7.5443115 -17.596802 -24.568665 -10.322098 -38.024963l0 0c3.4934235 -6.4619446 9.319046 -11.220032 16.195282 -13.227539c6.8762207 -2.0075073 14.239807 -1.1000061 20.470825 2.5228882l0 0c12.975464 7.5443115 17.596802 24.568665 10.322113 38.024963l0 0c-7.2746887 13.456299 -23.690674 18.248932 -36.666122 10.704651z" fill-rule="evenodd"/><path fill="#ffffff" d="m353.42212 126.94818l0 0c-12.976532 -7.540642 -17.601746 -24.560875 -10.330719 -38.015747l0 0c3.4916687 -6.461258 9.315796 -11.219383 16.191162 -13.227646c6.8753357 -2.0082703 14.2387085 -1.1021576 20.470276 2.518982l0 0c12.976501 7.5406494 17.601715 24.560875 10.330688 38.015755l0 0c-7.2710266 13.454872 -23.684875 18.249306 -36.661407 10.708656z" fill-rule="evenodd"/></g></svg>