<svg version="1.1" viewBox="0.0 0.0 741.6929133858267 741.6929133858267" fill="none" stroke="none" stroke-linecap="square" stroke-miterlimit="10" xmlns:xlink="http://www.w3.org/1999/xlink" xmlns="http://www.w3.org/2000/svg"><clipPath id="p.0"><path d="m0 0l741.69293 0l0 741.69293l-741.69293 0l0 -741.69293z" clip-rule="nonzero"/></clipPath><g clip-path="url(#p.0)"><path fill="#000000" fill-opacity="0.0" d="m0 0l741.69293 0l0 741.69293l-741.69293 0z" fill-rule="evenodd"/><path fill="#ff0000" d="m0.010499213 164.10687l0 0c0 -90.61886 73.4611 -164.07996 164.07994 -164.07996l413.5409 0l0 0c43.516724 0 85.2511 17.286945 116.02203 48.057903c30.770935 30.770958 48.057922 72.50533 48.057922 116.02205l0 413.4779c0 90.618835 -73.46112 164.07996 -164.07996 164.07996l-413.5409 0l0 0c-90.61884 0 -164.07994 -73.46112 -164.07994 -164.07996z" fill-rule="evenodd"/><path fill="#ffffff" d="m186.78477 366.54855l0 0c0 -122.42456 99.244736 -221.66928 221.6693 -221.66928l0 0l0 0c58.790344 0 115.17282 23.35437 156.74387 64.92543c41.571045 41.571045 64.925415 97.95351 64.925415 156.74385l0 9.669281l0 0c0 122.42459 -99.24469 221.66931 -221.66928 221.66931l0 0l0 0c-122.42456 0 -221.6693 -99.24472 -221.6693 -221.66931z" fill-rule="evenodd"/><path fill="#ffffff" d="m186.67717 338.8635l218.86613 0l0 -193.98425l-218.86613 0z" fill-rule="evenodd"/><path fill="#ffffff" d="m186.67717 597.8871l218.86613 0l0 -193.98422l-218.86613 0z" fill-rule="evenodd"/><path fill="#ff0000" d="m138.45407 338.32547l540.0 0l0 65.03937l-540.0 0z" fill-rule="evenodd"/></g></svg>