<svg version="1.1" viewBox="0.0 0.0 1024.0 1024.0" fill="none" stroke="none" stroke-linecap="square" stroke-miterlimit="10" xmlns:xlink="http://www.w3.org/1999/xlink" xmlns="http://www.w3.org/2000/svg"><clipPath id="p.0"><path d="m0 0l1024.0 0l0 1024.0l-1024.0 0l0 -1024.0z" clip-rule="nonzero"/></clipPath><g clip-path="url(#p.0)"><path fill="#000000" fill-opacity="0.0" d="m0 0l1024.0 0l0 1024.0l-1024.0 0z" fill-rule="evenodd"/><path fill="#ff0000" d="m5.511811E-6 511.9999l0 0c0 -282.7524 229.21611 -511.9685 511.9685 -511.9685l0.06298828 0l0 0c135.78247 0 266.00366 53.939384 362.01642 149.9521c96.012695 96.01271 149.95209 226.2339 149.95209 362.01642l0 0l0 0c0 282.7524 -229.21613 511.96848 -511.9685 511.96848l-0.06298828 0l0 0c-282.75238 0 -511.9685 -229.21606 -511.9685 -511.96848z" fill-rule="evenodd"/><path fill="#ff0000" d="m191.1387 467.0949l745.54333 0l0 89.79529l-745.54333 0z" fill-rule="evenodd"/><path fill="#ffffff" d="m92.766785 512.0002l0 0c0 -85.15817 69.03436 -154.19254 154.19255 -154.19254l0 0c40.894424 0 80.11391 16.24524 109.030624 45.161957c28.916687 28.916687 45.161926 68.13617 45.161926 109.03058l0 0c0 85.1582 -69.03433 154.19257 -154.19255 154.19257l0 0c-85.15819 0 -154.19255 -69.03436 -154.19255 -154.19257zm77.09628 0l0 0c0 42.5791 34.51718 77.09631 77.09627 77.09631c42.579117 0 77.0963 -34.517212 77.0963 -77.09631c0 -42.5791 -34.51718 -77.09628 -77.0963 -77.09628l0 0c-42.579086 0 -77.09627 34.51718 -77.09627 77.09628z" fill-rule="evenodd"/><path fill="#ffffff" d="m359.40262 462.1979l571.83044 0l0 99.60458l-571.83044 0z" fill-rule="evenodd"/><path fill="#ffffff" d="m767.243 544.1354l83.532715 0l0 99.60455l-83.532715 0z" fill-rule="evenodd"/><path fill="#ffffff" d="m639.0435 544.1354l83.532715 0l0 99.60455l-83.532715 0z" fill-rule="evenodd"/></g></svg>